<svg xmlns="http://www.w3.org/2000/svg" viewBox="103 -19 733 692">
<rect x="103.012" y="-18.188000000000002" width="732.076" height="691.476" fill="#e2edf4"/>
<g fill="#eff0e8" stroke="#b0b4a8" stroke-width=".6">
<path id="AL" d="M597.8,523.5 L597.6,527.8 L594.4,530.1 L593.9,535.4 L589.3,543.3 L587.6,542.2 L587.4,538.6 L582.0,533.1 L581.2,525.4 L582.0,514.3 L583.3,509.2 L581.6,506.6 L581.0,501.5 L585.2,493.4 L585.9,496.5 L588.5,495.1 L590.6,499.4 L592.9,501.1 L593.6,507.0 L592.4,512.5 L593.7,519.5 L597.8,523.5 Z"/>
<path id="AT" d="M558.2,405.0 L557.5,411.6 L552.0,411.7 L553.9,415.2 L550.6,425.7 L548.7,428.4 L540.2,428.8 L535.2,432.5 L527.2,431.3 L513.1,427.0 L510.9,421.4 L501.3,424.2 L500.1,427.3 L494.2,425.0 L489.2,424.6 L484.8,421.6 L486.2,417.6 L485.9,414.7 L488.8,413.8 L493.8,418.3 L495.2,414.0 L503.8,414.7 L510.8,411.8 L515.5,412.3 L518.6,415.6 L519.5,412.9 L518.1,402.3 L521.6,400.2 L525.1,392.7 L532.3,397.9 L537.9,391.3 L541.3,390.1 L548.9,395.0 L553.5,394.2 L558.1,397.3 L557.2,399.3 L558.2,405.0 Z"/>
<path id="BA" d="M573.7,494.1 L565.0,487.9 L561.3,481.1 L557.6,477.5 L553.1,471.4 L551.0,466.4 L546.2,458.8 L548.2,452.0 L551.7,455.7 L553.9,452.4 L558.4,452.0 L566.9,454.7 L573.6,454.5 L578.1,458.1 L581.6,458.0 L579.2,465.2 L583.9,471.5 L582.5,479.1 L580.2,479.9 L578.3,481.3 L575.2,485.1 L573.7,494.1 Z"/>
<path id="BE" d="M452.2,361.3 L451.1,372.3 L448.5,373.0 L447.5,382.1 L438.9,374.7 L433.9,375.9 L427.0,368.2 L422.5,361.7 L417.9,361.4 L416.5,355.7 L424.3,352.5 L431.5,353.8 L440.6,350.4 L446.8,357.5 L452.2,361.3 Z"/>
<path id="BG" d="M613.8,468.3 L616.7,475.0 L620.5,473.8 L628.0,476.3 L642.4,477.2 L647.2,473.0 L658.8,469.2 L665.9,475.1 L671.7,476.9 L666.6,483.6 L663.0,495.2 L666.2,504.5 L657.7,502.3 L647.7,507.5 L647.6,515.6 L638.7,517.1 L631.8,511.4 L624.0,515.9 L616.7,515.4 L616.0,504.7 L611.1,499.4 L612.8,497.1 L611.7,495.2 L613.4,490.0 L617.1,484.9 L612.3,477.9 L611.4,471.9 L613.8,468.3 Z"/>
<path id="BY" d="M667.9,274.0 L678.3,278.1 L679.6,282.1 L684.8,280.2 L694.4,284.1 L695.3,291.7 L693.2,296.1 L699.3,306.7 L703.3,309.7 L702.8,312.7 L709.4,315.5 L712.2,319.9 L708.4,323.4 L700.5,322.9 L698.6,324.4 L700.9,329.8 L703.3,340.2 L694.9,341.2 L691.9,344.7 L691.2,352.9 L687.3,351.4 L678.5,352.1 L675.9,348.3 L672.3,351.2 L668.6,348.8 L660.9,348.5 L649.9,344.6 L640.0,343.3 L632.4,343.7 L627.1,348.1 L622.4,348.7 L622.2,341.5 L619.2,333.9 L625.0,330.6 L625.1,324.1 L622.4,317.9 L622.0,310.7 L631.4,310.8 L642.1,304.7 L644.3,295.5 L652.4,290.3 L651.4,283.0 L657.4,280.3 L667.9,274.0 Z"/>
<path id="CH" d="M485.9,414.7 L486.2,417.6 L484.8,421.6 L489.2,424.6 L494.2,425.0 L493.4,431.7 L489.1,434.4 L481.8,432.4 L479.7,438.9 L475.1,439.5 L473.4,436.9 L467.9,442.4 L463.1,443.2 L458.9,439.7 L455.6,432.5 L450.9,435.1 L451.0,427.7 L458.2,418.6 L457.9,414.4 L462.3,415.9 L465.0,413.2 L473.4,413.3 L475.4,409.7 L485.9,414.7 Z"/>
<path id="CY" d="M712.6,616.3 L714.4,617.2 L717.0,615.8 L719.0,615.9 L719.7,617.0 L719.8,618.6 L720.3,618.0 L721.8,618.3 L723.7,617.1 L724.7,617.7 L725.0,619.0 L715.0,625.6 L710.2,623.5 L707.9,616.9 L712.6,616.3 Z"/>
<path id="CZ" d="M539.0,356.4 L543.7,361.7 L551.0,363.1 L550.4,367.6 L555.7,370.9 L557.1,366.7 L563.9,368.5 L564.8,373.6 L572.1,374.6 L576.6,382.6 L573.7,382.6 L572.2,385.6 L569.9,386.3 L569.3,390.0 L567.4,390.8 L567.1,392.3 L563.8,393.9 L559.4,393.7 L558.1,397.3 L553.5,394.2 L548.9,395.0 L541.3,390.1 L537.9,391.3 L532.3,397.9 L525.1,392.7 L519.5,385.7 L514.6,381.8 L513.5,374.9 L511.8,370.1 L518.9,366.5 L522.5,362.5 L529.6,359.3 L532.1,356.2 L534.6,358.1 L539.0,356.4 Z"/>
<path id="DE" d="M530.2,313.3 L532.5,321.5 L529.8,325.9 L533.3,331.7 L535.8,340.4 L535.0,346.0 L539.0,356.4 L534.6,358.1 L532.1,356.2 L529.6,359.3 L522.5,362.5 L518.9,366.5 L511.8,370.1 L513.5,374.9 L514.6,381.8 L519.5,385.7 L525.1,392.7 L521.6,400.2 L518.1,402.3 L519.5,412.9 L518.6,415.6 L515.5,412.3 L510.8,411.8 L503.8,414.7 L495.2,414.0 L493.8,418.3 L488.8,413.8 L485.9,414.7 L475.4,409.7 L473.4,413.3 L465.0,413.2 L466.3,401.6 L471.2,390.4 L457.1,387.4 L452.5,383.1 L453.1,376.0 L451.1,372.3 L452.2,361.3 L450.6,344.3 L456.4,344.3 L458.9,338.2 L461.3,323.2 L459.5,317.7 L461.4,314.3 L469.6,313.4 L471.5,317.0 L478.1,309.0 L475.9,302.9 L475.4,293.6 L482.8,295.8 L489.1,293.3 L489.2,299.6 L499.2,303.4 L499.0,309.2 L509.0,306.1 L514.5,301.6 L525.6,308.1 L530.2,313.3 Z"/>
<path id="DK" d="M489.1,293.3 L482.8,295.8 L475.4,293.6 L471.4,284.6 L471.1,267.9 L472.8,263.6 L475.6,258.7 L484.2,257.7 L487.7,253.2 L495.5,248.6 L495.2,257.0 L492.3,262.2 L493.5,266.8 L498.8,269.3 L496.4,275.4 L493.5,273.6 L486.4,285.4 L489.1,293.3 Z"/>
<path id="DK" d="M513.1,274.9 L516.2,283.1 L510.3,296.3 L500.1,287.1 L498.7,280.3 L513.1,274.9 Z"/>
<path id="EE" d="M666.0,220.2 L667.5,223.0 L660.5,232.4 L663.4,247.6 L659.2,252.7 L651.1,252.7 L642.7,246.7 L638.4,244.7 L630.1,247.6 L631.2,237.9 L627.6,240.0 L621.4,234.2 L620.5,224.9 L632.9,220.3 L645.3,218.0 L655.9,220.6 L666.0,220.2 Z"/>
<path id="ES" d="M318.9,584.4 L318.0,579.1 L321.7,573.0 L323.0,568.5 L319.6,563.7 L322.3,553.0 L318.4,543.2 L322.7,541.9 L323.1,534.2 L324.6,531.8 L324.7,519.1 L329.3,514.7 L326.5,506.6 L320.8,506.0 L319.2,508.0 L313.4,508.0 L310.9,500.1 L306.9,502.5 L303.4,506.6 L303.9,495.0 L299.8,487.9 L313.7,476.2 L325.7,479.1 L338.9,479.0 L349.3,481.8 L357.4,481.0 L373.2,481.5 L377.2,487.8 L395.2,495.2 L398.7,491.7 L409.8,499.1 L421.1,496.9 L421.7,506.4 L412.4,517.2 L399.8,520.7 L399.0,526.2 L392.9,535.2 L389.1,548.4 L393.0,557.8 L387.3,565.0 L385.2,575.6 L377.8,578.8 L370.8,591.3 L358.4,591.6 L349.1,591.3 L342.9,597.0 L339.2,603.2 L334.4,601.8 L330.8,596.4 L328.0,587.0 L318.9,584.4 Z"/>
<path id="FI" d="M672.0,64.1 L670.6,75.5 L685.6,86.3 L676.5,98.6 L687.9,117.1 L681.3,131.1 L690.1,143.2 L686.2,153.8 L700.6,165.0 L696.9,173.2 L687.8,182.6 L666.9,203.4 L649.1,204.7 L631.9,210.7 L615.9,214.1 L610.3,205.2 L600.8,199.9 L602.9,183.9 L598.2,169.2 L602.9,159.7 L611.8,149.5 L634.2,131.8 L640.7,128.4 L639.7,121.5 L626.1,113.8 L622.8,107.5 L622.5,82.4 L607.2,71.4 L594.1,63.4 L600.0,59.1 L610.9,67.7 L623.7,66.9 L634.2,70.8 L643.5,63.6 L648.4,51.7 L663.6,46.2 L676.1,52.6 L672.0,64.1 Z"/>
<path id="FR" d="M452.5,383.1 L457.1,387.4 L471.2,390.4 L466.3,401.6 L465.0,413.2 L462.3,415.9 L457.9,414.4 L458.2,418.6 L451.0,427.7 L450.9,435.1 L455.6,432.5 L458.9,439.7 L458.5,444.3 L461.4,450.4 L458.0,455.4 L460.5,468.0 L465.9,470.0 L464.7,477.1 L455.8,486.3 L436.5,481.9 L422.3,487.2 L421.1,496.9 L409.8,499.1 L398.7,491.7 L395.2,495.2 L377.2,487.8 L373.2,481.5 L378.3,471.7 L380.2,439.3 L370.1,422.2 L362.8,414.0 L347.9,407.7 L346.9,395.8 L359.6,392.3 L376.0,396.5 L372.9,378.0 L382.2,385.0 L405.0,372.3 L407.9,359.0 L416.5,355.7 L417.9,361.4 L422.5,361.7 L427.0,368.2 L433.9,375.9 L438.9,374.7 L447.5,382.1 L449.7,383.5 L452.5,383.1 Z"/>
<path id="FR" d="M477.6,494.4 L483.9,488.2 L485.5,502.2 L482.3,514.7 L477.8,511.4 L475.6,500.5 L477.6,494.4 Z"/>
<path id="GB" d="M331.2,311.5 L323.8,308.1 L317.7,308.3 L319.7,299.6 L317.7,290.9 L325.9,290.2 L336.4,300.3 L331.2,311.5 Z"/>
<path id="GB" d="M361.6,319.0 L361.6,319.0 L363.0,309.6 L356.5,299.5 L356.3,299.3 L344.4,296.4 L342.1,292.0 L345.7,284.8 L342.4,280.3 L337.2,287.9 L336.6,272.3 L331.6,264.0 L335.2,247.1 L342.8,233.9 L350.6,235.2 L362.4,233.9 L352.0,251.5 L362.0,249.2 L372.7,249.3 L370.1,262.6 L361.3,277.2 L371.4,278.2 L372.2,279.9 L381.0,299.1 L387.7,301.8 L393.7,320.3 L396.5,326.7 L408.4,329.8 L407.2,340.2 L402.2,345.0 L406.1,353.4 L397.3,362.0 L384.2,361.8 L367.5,366.3 L362.9,363.1 L356.5,370.7 L347.4,368.8 L340.5,375.1 L335.3,371.8 L349.6,354.7 L358.4,351.2 L358.4,351.2 L343.0,348.5 L340.3,342.0 L350.5,337.0 L345.2,328.2 L347.0,317.5 L361.6,319.0 Z"/>
<path id="GR" d="M649.4,613.7 L648.2,618.5 L634.1,619.9 L634.2,617.2 L622.2,614.0 L624.1,607.1 L629.4,612.6 L637.1,611.7 L644.4,612.8 L644.1,615.7 L649.4,613.7 Z"/>
<path id="GR" d="M616.7,515.4 L624.0,515.9 L631.8,511.4 L638.7,517.1 L647.6,515.6 L647.7,507.5 L652.5,511.8 L649.5,522.0 L647.1,523.8 L641.2,523.3 L636.1,521.8 L624.2,526.0 L631.0,535.2 L626.0,537.8 L620.6,537.9 L615.4,529.5 L613.6,533.0 L615.8,542.8 L620.7,550.4 L617.0,553.9 L622.4,561.5 L627.3,566.2 L627.4,575.4 L618.3,571.1 L621.2,579.4 L615.0,581.1 L618.7,595.4 L612.2,595.7 L604.2,588.6 L600.5,575.6 L598.8,564.7 L595.0,557.2 L589.9,547.9 L589.3,543.3 L593.9,535.4 L594.4,530.1 L597.6,527.8 L597.8,523.5 L604.2,522.0 L608.0,518.5 L613.2,518.8 L614.9,516.0 L616.7,515.4 Z"/>
<path id="HR" d="M554.2,431.3 L557.3,433.3 L564.6,440.3 L572.7,443.5 L576.4,441.0 L578.7,447.3 L581.9,452.0 L578.1,458.1 L573.6,454.5 L566.9,454.7 L558.4,452.0 L553.9,452.4 L551.7,455.7 L548.2,452.0 L546.2,458.8 L551.0,466.4 L553.1,471.4 L557.6,477.5 L561.3,481.1 L565.0,487.9 L573.7,494.1 L572.6,496.8 L563.4,490.8 L557.7,485.0 L548.8,480.1 L540.6,468.1 L542.5,466.9 L538.1,460.1 L537.9,454.6 L531.6,452.0 L528.6,459.0 L525.7,453.6 L525.9,447.9 L526.2,447.7 L533.1,448.2 L534.9,445.5 L538.2,448.1 L542.0,448.4 L542.0,443.9 L545.4,442.2 L546.4,435.7 L554.2,431.3 Z"/>
<path id="HU" d="M608.2,400.1 L613.7,404.5 L614.4,408.9 L608.4,412.3 L603.8,423.3 L597.8,434.4 L590.0,437.5 L583.9,436.7 L576.4,441.0 L572.7,443.5 L564.6,440.3 L557.3,433.3 L554.2,431.3 L552.3,425.8 L550.6,425.7 L553.9,415.2 L552.0,411.7 L557.5,411.6 L558.2,405.0 L563.2,409.1 L566.8,410.9 L575.1,408.9 L575.8,405.7 L579.7,405.2 L584.5,402.6 L585.6,403.7 L590.1,401.6 L592.5,397.8 L595.7,396.8 L606.2,401.8 L608.2,400.1 Z"/>
<path id="IE" d="M331.2,311.5 L332.8,323.1 L325.4,337.6 L308.0,347.2 L294.1,344.8 L302.1,327.8 L297.0,311.2 L310.3,298.5 L317.7,290.9 L319.7,299.6 L317.7,308.3 L323.8,308.1 L331.2,311.5 Z"/>
<path id="IS" d="M249.7,106.5 L247.5,117.1 L258.5,128.2 L245.8,140.6 L217.6,151.8 L209.1,154.7 L196.2,152.3 L168.9,147.2 L178.5,140.0 L157.2,132.0 L174.5,128.9 L174.1,124.1 L153.5,120.3 L160.2,109.7 L175.0,107.3 L190.3,118.3 L205.2,109.5 L217.5,114.1 L233.5,105.4 L249.7,106.5 Z"/>
<path id="IT" d="M494.2,425.0 L500.1,427.3 L501.3,424.2 L510.9,421.4 L513.1,427.0 L527.2,431.3 L526.1,439.3 L528.4,446.2 L520.6,443.8 L512.7,449.6 L513.2,457.7 L512.0,462.3 L515.2,470.6 L524.4,478.8 L529.3,492.3 L540.2,505.4 L547.9,505.3 L550.3,508.9 L547.5,512.1 L556.3,518.0 L563.5,522.9 L571.9,531.4 L572.9,534.5 L571.1,540.3 L565.7,532.7 L557.1,530.0 L553.0,540.5 L560.1,546.6 L558.9,555.1 L554.8,556.0 L549.6,570.0 L545.5,571.3 L545.6,566.3 L547.6,557.5 L549.7,554.1 L545.9,544.6 L542.9,536.4 L538.8,534.4 L535.9,527.4 L529.6,524.4 L525.4,517.9 L518.1,516.8 L510.5,509.4 L501.5,498.9 L494.8,489.5 L491.8,473.4 L486.9,471.5 L479.0,466.1 L474.5,468.3 L468.8,475.9 L464.7,477.1 L465.9,470.0 L460.5,468.0 L458.0,455.4 L461.4,450.4 L458.5,444.3 L458.9,439.7 L463.1,443.2 L467.9,442.4 L473.4,436.9 L475.1,439.5 L479.7,438.9 L481.8,432.4 L489.1,434.4 L493.4,431.7 L494.2,425.0 Z"/>
<path id="IT" d="M536.5,567.4 L543.9,566.0 L540.4,578.8 L541.9,583.9 L539.8,592.2 L532.3,586.1 L527.3,584.3 L513.7,576.1 L515.0,567.7 L526.5,569.2 L536.5,567.4 Z"/>
<path id="IT" d="M477.2,522.6 L482.1,517.5 L488.0,529.1 L486.6,550.6 L482.2,549.6 L478.2,555.0 L474.5,550.7 L474.1,531.1 L471.8,521.7 L477.2,522.6 Z"/>
<path id="LT" d="M651.4,283.0 L652.4,290.3 L644.3,295.5 L642.1,304.7 L631.4,310.8 L622.0,310.7 L619.6,305.7 L614.6,304.0 L613.8,299.8 L614.8,295.4 L610.5,292.8 L600.2,289.9 L598.2,276.2 L609.4,271.3 L625.8,272.3 L635.4,270.7 L636.8,274.1 L642.0,275.1 L651.4,283.0 Z"/>
<path id="LU" d="M451.1,372.3 L453.1,376.0 L452.5,383.1 L449.7,383.5 L447.5,382.1 L448.5,373.0 L451.1,372.3 Z"/>
<path id="LV" d="M659.2,252.7 L663.9,256.5 L664.8,264.4 L667.9,274.0 L657.4,280.3 L651.4,283.0 L642.0,275.1 L636.8,274.1 L635.4,270.7 L625.8,272.3 L609.4,271.3 L598.2,276.2 L598.5,264.0 L603.3,253.8 L612.5,248.2 L620.3,260.4 L628.2,260.0 L630.1,247.6 L638.4,244.7 L642.7,246.7 L651.1,252.7 L659.2,252.7 Z"/>
<path id="MD" d="M652.7,403.4 L655.0,401.0 L661.5,399.4 L668.7,404.4 L672.8,405.1 L677.2,409.4 L676.5,414.9 L680.0,417.6 L681.5,424.4 L684.9,428.6 L684.2,431.0 L686.0,432.6 L683.4,433.8 L677.7,433.3 L676.7,431.1 L674.7,432.4 L675.4,435.3 L672.7,440.5 L670.9,446.1 L668.5,447.9 L666.7,440.4 L667.8,433.5 L667.5,426.3 L661.8,416.7 L658.7,409.8 L655.6,405.0 L652.7,403.4 Z"/>
<path id="ME" d="M588.5,495.1 L585.9,496.5 L585.2,493.4 L581.0,501.5 L581.6,506.6 L579.6,505.4 L576.9,500.1 L572.6,496.8 L573.7,494.1 L575.2,485.1 L578.3,481.3 L580.2,479.9 L582.8,482.6 L584.2,484.9 L587.4,486.6 L591.1,490.0 L590.4,491.4 L588.5,495.1 Z"/>
<path id="MK" d="M611.1,499.4 L616.0,504.7 L616.7,515.4 L614.9,516.0 L613.2,518.8 L608.0,518.5 L604.2,522.0 L597.8,523.5 L593.7,519.5 L592.4,512.5 L593.6,507.0 L594.8,507.1 L595.3,503.8 L601.1,501.3 L603.3,500.7 L606.6,499.7 L611.1,499.4 Z"/>
<path id="NL" d="M459.5,317.7 L461.3,323.2 L458.9,338.2 L456.4,344.3 L450.6,344.3 L452.2,361.3 L446.8,357.5 L440.6,350.4 L431.5,353.8 L424.3,352.5 L429.4,348.0 L438.0,324.1 L451.4,317.3 L459.5,317.7 Z"/>
<path id="NO" d="M696.6,56.0 L679.9,62.6 L672.0,64.1 L676.1,52.6 L663.6,46.2 L648.4,51.7 L643.5,63.6 L634.2,70.8 L623.7,66.9 L610.9,67.7 L600.0,59.1 L594.1,63.4 L588.1,64.1 L586.6,74.8 L568.2,72.2 L565.6,81.2 L556.1,81.2 L549.7,92.8 L539.9,110.8 L524.7,133.7 L528.2,139.3 L524.8,145.7 L515.1,145.4 L508.8,160.7 L509.4,182.3 L515.6,190.6 L512.4,209.7 L504.2,220.9 L499.9,230.3 L493.3,220.3 L474.0,239.1 L460.9,242.9 L447.4,234.6 L443.9,217.1 L440.8,179.6 L449.8,169.1 L475.7,155.4 L495.0,138.6 L512.9,115.9 L536.5,84.5 L552.9,72.2 L579.8,51.8 L601.3,44.7 L617.4,45.5 L632.4,32.1 L650.2,32.8 L667.8,29.5 L698.5,41.5 L685.8,45.8 L696.6,56.0 Z"/>
<path id="PL" d="M622.0,310.7 L622.4,317.9 L625.1,324.1 L625.0,330.6 L619.2,333.9 L622.2,341.5 L622.4,348.7 L627.3,362.9 L626.3,367.5 L621.4,369.4 L612.5,382.9 L615.0,390.3 L612.9,389.3 L603.6,383.0 L596.5,385.3 L591.9,383.7 L586.1,387.2 L581.2,381.4 L577.1,383.6 L576.6,382.6 L572.1,374.6 L564.8,373.6 L563.9,368.5 L557.1,366.7 L555.7,370.9 L550.4,367.6 L551.0,363.1 L543.7,361.7 L539.0,356.4 L535.0,346.0 L535.8,340.4 L533.3,331.7 L529.8,325.9 L532.5,321.5 L530.2,313.3 L536.9,308.5 L552.2,301.0 L564.5,295.4 L574.3,298.2 L575.1,302.2 L584.5,302.4 L596.6,304.2 L614.6,304.0 L619.6,305.7 L622.0,310.7 Z"/>
<path id="PT" d="M303.4,506.6 L306.9,502.5 L310.9,500.1 L313.4,508.0 L319.2,508.0 L320.8,506.0 L326.5,506.6 L329.3,514.7 L324.7,519.1 L324.6,531.8 L323.1,534.2 L322.7,541.9 L318.4,543.2 L322.3,553.0 L319.6,563.7 L323.0,568.5 L321.7,573.0 L318.0,579.1 L318.9,584.4 L314.9,588.7 L309.8,586.4 L304.7,588.2 L306.2,575.4 L305.3,565.4 L300.9,563.9 L298.5,557.8 L299.3,547.1 L303.2,541.2 L303.9,534.6 L306.0,524.8 L305.8,517.9 L303.8,512.1 L303.4,506.6 Z"/>
<path id="RO" d="M668.5,447.9 L672.9,450.9 L677.5,448.3 L681.9,451.0 L682.1,455.2 L677.4,458.8 L674.4,457.2 L671.7,476.9 L665.9,475.1 L658.8,469.2 L647.2,473.0 L642.4,477.2 L628.0,476.3 L620.5,473.8 L616.7,475.0 L613.8,468.3 L612.0,465.4 L614.3,462.7 L611.9,460.7 L608.8,464.3 L603.1,459.6 L602.4,452.9 L596.4,449.0 L595.3,443.8 L590.0,437.5 L597.8,434.4 L603.8,423.3 L608.4,412.3 L614.4,408.9 L618.6,405.4 L624.7,407.2 L631.0,407.3 L635.5,411.3 L638.9,408.7 L646.1,407.2 L648.5,403.4 L652.7,403.4 L655.6,405.0 L658.7,409.8 L661.8,416.7 L667.5,426.3 L667.8,433.5 L666.7,440.4 L668.5,447.9 Z"/>
<path id="RS" d="M576.4,441.0 L583.9,436.7 L590.0,437.5 L595.3,443.8 L596.4,449.0 L602.4,452.9 L603.1,459.6 L608.8,464.3 L611.9,460.7 L614.3,462.7 L612.0,465.4 L613.8,468.3 L611.4,471.9 L612.3,477.9 L617.1,484.9 L613.4,490.0 L611.7,495.2 L612.8,497.1 L611.1,499.4 L606.6,499.7 L603.3,500.7 L602.9,499.4 L604.1,497.5 L605.2,493.5 L603.8,493.6 L601.9,490.6 L600.3,489.8 L599.0,487.2 L597.2,486.3 L595.8,483.9 L594.0,484.8 L592.7,490.2 L590.4,491.4 L591.1,490.0 L587.4,486.6 L584.2,484.9 L582.8,482.6 L580.2,479.9 L582.5,479.1 L583.9,471.5 L579.2,465.2 L581.6,458.0 L578.1,458.1 L581.9,452.0 L578.7,447.3 L576.4,441.0 Z"/>
<path id="SE" d="M499.9,230.3 L504.2,220.9 L512.4,209.7 L515.6,190.6 L509.4,182.3 L508.8,160.7 L515.1,145.4 L524.8,145.7 L528.2,139.3 L524.7,133.7 L539.9,110.8 L549.7,92.8 L556.1,81.2 L565.6,81.2 L568.2,72.2 L586.6,74.8 L588.1,64.1 L594.1,63.4 L607.2,71.4 L622.5,82.4 L622.8,107.5 L626.1,113.8 L609.2,118.4 L599.7,129.8 L601.2,139.8 L585.7,152.9 L566.7,166.9 L559.6,189.8 L566.6,201.3 L575.9,210.3 L566.9,228.7 L556.7,232.5 L553.0,259.8 L547.5,275.1 L535.6,273.5 L530.0,286.4 L518.7,287.1 L515.6,271.7 L507.4,253.3 L499.9,230.3 Z"/>
<path id="SI" d="M527.2,431.3 L535.2,432.5 L540.2,428.8 L548.7,428.4 L550.6,425.7 L552.3,425.8 L554.2,431.3 L546.4,435.7 L545.4,442.2 L542.0,443.9 L542.0,448.4 L538.2,448.1 L534.9,445.5 L533.1,448.2 L526.2,447.7 L528.4,446.2 L526.1,439.3 L527.2,431.3 Z"/>
<path id="SK" d="M612.9,389.3 L610.2,393.5 L608.2,400.1 L606.2,401.8 L595.7,396.8 L592.5,397.8 L590.1,401.6 L585.6,403.7 L584.5,402.6 L579.7,405.2 L575.8,405.7 L575.1,408.9 L566.8,410.9 L563.2,409.1 L558.2,405.0 L557.2,399.3 L558.1,397.3 L559.4,393.7 L563.8,393.9 L567.1,392.3 L567.4,390.8 L569.3,390.0 L569.9,386.3 L572.2,385.6 L573.7,382.6 L576.6,382.6 L577.1,383.6 L581.2,381.4 L586.1,387.2 L591.9,383.7 L596.5,385.3 L603.6,383.0 L612.9,389.3 Z"/>
<path id="UA" d="M703.3,340.2 L707.0,340.9 L709.4,337.2 L712.4,338.0 L722.5,336.4 L728.8,345.6 L726.4,348.9 L727.2,354.0 L735.0,354.8 L738.5,361.8 L738.3,365.0 L750.7,370.7 L758.2,368.2 L764.3,375.8 L770.0,375.6 L784.4,380.9 L784.6,385.7 L780.6,394.2 L782.8,403.2 L781.2,408.6 L771.7,409.8 L766.7,414.4 L766.4,421.6 L758.5,422.9 L752.0,428.2 L742.8,429.0 L734.4,435.1 L734.9,443.8 L733.4,443.3 L732.1,440.1 L729.0,439.5 L722.0,436.0 L719.4,440.0 L718.1,438.2 L702.9,434.1 L702.2,428.0 L693.1,430.0 L689.5,439.0 L681.9,451.0 L677.5,448.3 L672.9,450.9 L668.5,447.9 L670.9,446.1 L672.7,440.5 L675.4,435.3 L674.7,432.4 L676.7,431.1 L677.7,433.3 L683.4,433.8 L686.0,432.6 L684.2,431.0 L684.9,428.6 L681.5,424.4 L680.0,417.6 L676.5,414.9 L677.2,409.4 L672.8,405.1 L668.7,404.4 L661.5,399.4 L655.0,401.0 L652.7,403.4 L648.5,403.4 L646.1,407.2 L638.9,408.7 L635.5,411.3 L631.0,407.3 L624.7,407.2 L618.6,405.4 L614.4,408.9 L613.7,404.5 L608.2,400.1 L610.2,393.5 L612.9,389.3 L615.0,390.3 L612.5,382.9 L621.4,369.4 L626.3,367.5 L627.3,362.9 L622.4,348.7 L627.1,348.1 L632.4,343.7 L640.0,343.3 L649.9,344.6 L660.9,348.5 L668.6,348.8 L672.3,351.2 L675.9,348.3 L678.5,352.1 L687.3,351.4 L691.2,352.9 L691.9,344.7 L694.9,341.2 L703.3,340.2 Z"/>
</g>
<g fill="#e74c3c" stroke="#c0392b" stroke-width=".8">
<path d="M318.9,584.4 L318.0,579.1 L321.7,573.0 L323.0,568.5 L319.6,563.7 L322.3,553.0 L318.4,543.2 L322.7,541.9 L323.1,534.2 L324.6,531.8 L324.7,519.1 L329.3,514.7 L326.5,506.6 L320.8,506.0 L319.2,508.0 L313.4,508.0 L310.9,500.1 L306.9,502.5 L303.4,506.6 L303.9,495.0 L299.8,487.9 L313.7,476.2 L325.7,479.1 L338.9,479.0 L349.3,481.8 L357.4,481.0 L373.2,481.5 L377.2,487.8 L395.2,495.2 L398.7,491.7 L409.8,499.1 L421.1,496.9 L421.7,506.4 L412.4,517.2 L399.8,520.7 L399.0,526.2 L392.9,535.2 L389.1,548.4 L393.0,557.8 L387.3,565.0 L385.2,575.6 L377.8,578.8 L370.8,591.3 L358.4,591.6 L349.1,591.3 L342.9,597.0 L339.2,603.2 L334.4,601.8 L330.8,596.4 L328.0,587.0 L318.9,584.4 Z"/>
</g>
<g font-family="system-ui,sans-serif" fill="#2c3e50" font-size="5" font-weight="600" text-anchor="middle">
<text x="589.1" y="517.2" dominant-baseline="middle">AL</text>
<text x="524.0" y="412.8" dominant-baseline="middle">AT</text>
<text x="567.0" y="469.6" dominant-baseline="middle">BA</text>
<text x="436.8" y="364.1" dominant-baseline="middle">BE</text>
<text x="633.7" y="490.1" dominant-baseline="middle">BG</text>
<text x="668.4" y="319.5" dominant-baseline="middle">BY</text>
<text x="473.3" y="426.6" dominant-baseline="middle">CH</text>
<text x="717.6" y="618.2" dominant-baseline="middle">CY</text>
<text x="547.2" y="378.0" dominant-baseline="middle">CZ</text>
<text x="496.6" y="357.4" dominant-baseline="middle">DE</text>
<text x="491.8" y="274.9" dominant-baseline="middle">DK</text>
<text x="645.9" y="234.3" dominant-baseline="middle">EE</text>
<text x="348.3" y="534.4" dominant-baseline="middle">ES</text>
<text x="644.4" y="122.5" dominant-baseline="middle">FI</text>
<text x="431.3" y="433.1" dominant-baseline="middle">FR</text>
<text x="356.5" y="309.8" dominant-baseline="middle">GB</text>
<text x="622.5" y="555.5" dominant-baseline="middle">GR</text>
<text x="552.4" y="457.4" dominant-baseline="middle">HR</text>
<text x="580.4" y="415.7" dominant-baseline="middle">HU</text>
<text x="316.2" y="316.9" dominant-baseline="middle">IE</text>
<text x="203.1" y="125.7" dominant-baseline="middle">IS</text>
<text x="513.5" y="503.8" dominant-baseline="middle">IT</text>
<text x="627.2" y="289.8" dominant-baseline="middle">LT</text>
<text x="450.5" y="377.5" dominant-baseline="middle">LU</text>
<text x="636.2" y="262.8" dominant-baseline="middle">LV</text>
<text x="670.8" y="422.5" dominant-baseline="middle">MD</text>
<text x="582.4" y="492.6" dominant-baseline="middle">ME</text>
<text x="604.3" y="510.0" dominant-baseline="middle">MK</text>
<text x="447.2" y="339.3" dominant-baseline="middle">NL</text>
<text x="569.1" y="110.2" dominant-baseline="middle">NO</text>
<text x="582.7" y="346.0" dominant-baseline="middle">PL</text>
<text x="313.1" y="541.0" dominant-baseline="middle">PT</text>
<text x="638.7" y="441.9" dominant-baseline="middle">RO</text>
<text x="597.0" y="474.8" dominant-baseline="middle">RS</text>
<text x="554.1" y="167.0" dominant-baseline="middle">SE</text>
<text x="538.8" y="437.8" dominant-baseline="middle">SI</text>
<text x="581.5" y="394.5" dominant-baseline="middle">SK</text>
<text x="690.2" y="395.8" dominant-baseline="middle">UA</text>
</g>
</svg>